<svg viewBox="0 0 43 92" xmlns="http://www.w3.org/2000/svg">
  <defs>
    <linearGradient x1="50%" y1="-75.036%" x2="50%" y2="134.765%" id="a">
      <stop stop-color="#4C5B79" offset="0%"/>
      <stop stop-color="#FFF" offset="100%"/>
    </linearGradient>
  </defs>
  <g transform="translate(-771 -1508)" fill-rule="nonzero" fill="url(#a)">
    <path d="M793.37 1573.11c-6.646-3.116-11.63-6.646-14.538-10.592h22.014c1.246 0 2.076-.83 2.076-2.076s-.83-2.077-2.076-2.077h-24.09c-.415-1.454-.83-2.7-.83-4.154 0-6.436 5.4-11.42 9.76-14.536 1.038-.623 1.246-1.87.623-2.907-.624-1.038-1.87-1.246-2.91-.623-7.683 5.4-11.628 11.63-11.628 18.067 0 8.724 7.06 16.823 19.936 22.638 7.684 3.53 13.083 7.89 15.783 12.668h-23.258c-1.246 0-2.077.83-2.077 2.076s.83 2.077 2.077 2.077h24.713c.208.622.208 1.453.208 2.076v2.076c0 1.246.83 2.077 2.077 2.077 1.245 0 2.076-.832 2.076-2.078v-2.076c0-8.722-7.06-16.822-19.936-22.636z"/>
    <path d="M786.31 1578.3c-.624-1.037-1.87-1.245-2.91-.622-7.683 5.4-11.628 11.63-11.628 18.068v2.076c0 1.246.83 2.077 2.076 2.077s2.077-.832 2.077-2.078v-2.076c0-6.438 5.4-11.422 9.76-14.537 1.04-.624 1.247-1.87.624-2.91zM793.37 1531.575c-7.684-3.53-13.084-7.89-15.783-12.668h23.26c1.245 0 2.076-.83 2.076-2.077 0-1.246-.83-2.076-2.077-2.076h-24.713c-.208-.623-.208-1.454-.208-2.077v-2.077c0-1.246-.83-2.077-2.077-2.077-1.246 0-2.076.83-2.076 2.077v2.077c0 8.722 7.06 16.82 19.936 22.636 6.646 3.115 11.63 6.645 14.537 10.59h-22.013c-1.246 0-2.077.832-2.077 2.078 0 1.247.83 2.077 2.077 2.077h24.09c.415 1.454.83 2.7.83 4.154 0 6.44-5.4 11.63-9.968 14.746-1.038.623-1.246 1.87-.623 2.907.417.623 1.04.83 1.663.83.415 0 .83-.207 1.246-.414 7.683-5.193 11.836-11.423 11.836-18.07 0-8.72-7.06-16.82-19.936-22.635z"/>
    <path d="M811.23 1508.523c-1.247 0-2.077.83-2.077 2.077v2.077c0 6.438-5.4 11.63-9.97 14.744-1.037.624-1.245 1.87-.622 2.91.417.622 1.04.83 1.663.83.415 0 .83-.208 1.246-.416 7.683-5.192 11.836-11.422 11.836-18.067v-2.077c0-1.246-.83-2.077-2.077-2.077z"/>
  </g>
</svg>
