<?xml version="1.0" encoding="UTF-8"?>
<svg width="30px" height="30px" viewBox="0 0 30 30" version="1.1" xmlns="http://www.w3.org/2000/svg" xmlns:xlink="http://www.w3.org/1999/xlink">
    <!-- Generator: Sketch 47 (45396) - http://www.bohemiancoding.com/sketch -->
    <title>FB</title>
    <desc>Created with Sketch.</desc>
    <defs></defs>
    <g id="App" stroke="none" stroke-width="1" fill="none" fill-rule="evenodd">
        <g id="scienceroot-fullpage" transform="translate(-531.000000, -4473.000000)">
            <g id="people" transform="translate(-59.000000, 3994.000000)">
                <g id="team-group" transform="translate(0.000000, 254.000000)">
                    <g id="person-copy" transform="translate(532.000000, 0.000000)">
                        <g id="social" transform="translate(58.000000, 225.000000)">
                            <g id="FB">
                                <circle id="Oval-10" fill="#3B5998" cx="15" cy="15" r="15"></circle>
                                <g id="facebook-logo" transform="translate(11.000000, 8.000000)" fill-rule="nonzero" fill="#FFFFFF">
                                    <path d="M7.56060377,0.00301886792 L5.67909434,0 C3.56528302,0 2.19924528,1.40150943 2.19924528,3.57071698 L2.19924528,5.2170566 L0.307471698,5.2170566 C0.144,5.2170566 0.0116226415,5.34958491 0.0116226415,5.5130566 L0.0116226415,7.89841509 C0.0116226415,8.06188679 0.144150943,8.19426415 0.307471698,8.19426415 L2.19924528,8.19426415 L2.19924528,14.213283 C2.19924528,14.3767547 2.33162264,14.5091321 2.49509434,14.5091321 L4.96332075,14.5091321 C5.12679245,14.5091321 5.25916981,14.3766038 5.25916981,14.213283 L5.25916981,8.19426415 L7.47109434,8.19426415 C7.63456604,8.19426415 7.7669434,8.06188679 7.7669434,7.89841509 L7.76784906,5.5130566 C7.76784906,5.43456604 7.73660377,5.35939623 7.68120755,5.30384906 C7.62581132,5.24830189 7.55033962,5.2170566 7.47184906,5.2170566 L5.25916981,5.2170566 L5.25916981,3.82143396 C5.25916981,3.15064151 5.41901887,2.81011321 6.29283019,2.81011321 L7.56030189,2.80966038 C7.72362264,2.80966038 7.856,2.67713208 7.856,2.51381132 L7.856,0.298867925 C7.856,0.135698113 7.72377358,0.00332075472 7.56060377,0.00301886792 Z" id="Shape"></path>
                                </g>
                            </g>
                        </g>
                    </g>
                </g>
            </g>
        </g>
    </g>
</svg>