<svg viewBox="0 0 99 96" xmlns="http://www.w3.org/2000/svg">
  <defs>
    <filter x="-9%" y="-5.7%" width="118%" height="117.2%" filterUnits="objectBoundingBox" id="a">
      <feOffset dy="2" in="SourceAlpha" result="shadowOffsetOuter1"/>
      <feGaussianBlur stdDeviation="2" in="shadowOffsetOuter1" result="shadowBlurOuter1"/>
      <feColorMatrix values="0 0 0 0 0 0 0 0 0 0 0 0 0 0 0 0 0 0 0.5 0" in="shadowBlurOuter1" result="shadowMatrixOuter1"/>
      <feMerge>
        <feMergeNode in="shadowMatrixOuter1"/>
        <feMergeNode in="SourceGraphic"/>
      </feMerge>
    </filter>
    <linearGradient x1="63.375%" y1="116.123%" x2="63.375%" y2="-49.245%" id="b">
      <stop stop-color="#FFF" offset="0%"/>
      <stop stop-color="#5E768E" offset="100%"/>
    </linearGradient>
    <linearGradient x1="50%" y1="187.341%" x2="50%" y2="0%" id="c">
      <stop stop-color="#EEE" offset="0%"/>
      <stop stop-color="#7183A4" offset="100%"/>
    </linearGradient>
  </defs>
  <g filter="url(#a)" transform="translate(5 2)" fill="none" fill-rule="evenodd">
    <path d="M0 80.492V48h14.008v32.492H0zm55.164-11.725c17.706-6.337 27.07-9.585 28.09-9.742 1.956-.117 3.937.642 5.063 3.037 1.125 2.394.835 4.25-.686 5.678-1.384.888-32.91 18.493-38.007 19.26-6.128-.368-28.58-9.432-30.452-9.706-1.227-.075-2.915-.075-5.06 0m-.137-25.578c7.665-.153 12.11-.082 13.33.213 1.83.443 9.233 5.31 11.11 5.7 1.875.392 14.568-.2 17.176 0 2.45.597 4.68 2.455 4.68 5.323 0 2.87-2.39 5.05-4.68 5.764-2.227.263-13.453-.173-14.588 0-.757.115-1.62 1.093-2.59 2.933" stroke="url(#b)" stroke-width="2" stroke-linecap="round"/>
    <path d="M46 42c-11.598 0-21-9.402-21-21S34.402 0 46 0s21 9.402 21 21-9.402 21-21 21zm7.406-17.122c0-1.67-.528-2.897-1.586-3.68-1.075-.817-2.666-1.456-4.772-1.92l-.547-.105c-1.43-.294-2.382-.558-2.858-.793-.475-.236-.713-.607-.713-1.113 0-1.094.86-1.64 2.585-1.64 1.644 0 3.812.41 6.505 1.226l.986-3.985c-1.6-.578-3.42-.96-5.465-1.147V8.643h-3.57v3.053c-1.885.222-3.358.837-4.42 1.846-1.062 1.01-1.593 2.322-1.593 3.94 0 1.6.475 2.79 1.426 3.572.987.81 2.533 1.44 4.64 1.893.106.027.354.076.746.147.39.07.638.12.745.146.738.178 1.177.298 1.32.36.48.125.813.28 1 .467.426.266.64.64.64 1.12 0 1.084-.996 1.613-2.987 1.586-1.955-.026-4.31-.555-7.065-1.585l-1.04 4.065c2.24.818 4.435 1.33 6.586 1.533v2.666h3.57v-2.693c1.867-.267 3.31-.9 4.333-1.9 1.022-1 1.533-2.326 1.533-3.98z" fill="url(#c)"/>
  </g>
</svg>
