<?xml version="1.0" encoding="UTF-8"?>
<svg width="31px" height="26px" viewBox="0 0 31 26" version="1.1" xmlns="http://www.w3.org/2000/svg" xmlns:xlink="http://www.w3.org/1999/xlink">
    <!-- Generator: Sketch 47 (45396) - http://www.bohemiancoding.com/sketch -->
    <title>github-character</title>
    <desc>Created with Sketch.</desc>
    <defs></defs>
    <g id="App" stroke="none" stroke-width="1" fill="none" fill-rule="evenodd">
        <g id="scienceroot-fullpage" transform="translate(-601.000000, -6028.000000)" fill-rule="nonzero" fill="#FFFFFF">
            <g id="social" transform="translate(100.000000, 6006.000000)">
                <g id="Group-12" transform="translate(414.000000, 0.000000)">
                    <g id="github-character" transform="translate(87.000000, 22.000000)">
                        <path d="M28.4655672,7.127963 C28.8009598,6.13051774 28.9688519,5.09653009 28.9688519,4.025612 C28.9688519,2.59754875 28.6517949,1.25563496 28.0185293,0 C26.6898787,0 25.5162003,0.24027423 24.4974941,0.720240598 C23.47931,1.20033632 22.3180947,1.94508942 21.0144353,2.95449989 C19.3751876,2.56061831 17.6359094,2.36367752 15.7981666,2.36367752 C13.7860067,2.36367752 11.8670912,2.57924522 10.0414852,3.01005724 C8.71270404,1.97587556 7.53902565,1.21592342 6.52058053,0.729554054 C5.50213541,0.243184685 4.32232337,6.46767778e-05 2.98088342,6.46767778e-05 C2.34748729,1.25569964 2.03082185,2.5976781 2.03082185,4.02567668 C2.03082185,5.10907739 2.19838766,6.15548297 2.53378027,7.16476409 C0.844484671,9.12227145 0,11.5596158 0,14.4772499 C0,17.038127 0.384853237,19.0752514 1.15501647,20.5896582 C1.56499153,21.3895159 2.09887915,22.0974032 2.75720134,22.7131262 C3.41526253,23.328461 4.16669859,23.8273777 5.01131376,24.2091 C5.85605944,24.5904343 6.7066125,24.9076739 7.56369071,25.159784 C8.42070366,25.4120234 9.36763316,25.5968696 10.4047402,25.7133525 C11.441782,25.8308055 12.357717,25.9076416 13.1525453,25.9448307 C13.9473736,25.9813084 14.8290516,26 15.7981014,26 C16.9405243,26 17.9772399,25.9720596 18.9091615,25.9170197 C19.8407569,25.861721 20.9054653,25.7260292 22.104135,25.5111082 C23.302609,25.2955405 24.358378,25.0029428 25.271442,24.6337677 C26.1843102,24.2645927 27.0601156,23.7350839 27.8984013,23.0458882 C28.7366871,22.3562397 29.3916162,21.5377551 29.8638412,20.5897229 C30.6210194,19.0631569 31,17.0255797 31,14.4773146 C30.9995432,11.5473272 30.1549933,9.0976296 28.4655672,7.127963 Z M26.2307692,20.5615238 C25.8332572,21.3681079 25.3301683,22.0015522 24.7216982,22.4636678 C24.1129672,22.9253953 23.3554627,23.2945704 22.4489239,23.5719044 C21.5419283,23.8487857 20.6729743,24.0302687 19.8407569,24.1161595 C19.0082785,24.2024383 18.0833388,24.2453837 17.0646326,24.2453837 L13.9347801,24.2453837 C12.9164002,24.2453837 11.9909385,24.2024383 11.1589168,24.1161595 C10.3268299,24.0302687 9.45748445,23.8487857 8.55074987,23.5719044 C7.64434154,23.2945704 6.88683709,22.9253953 6.27810602,22.4636678 C5.66937495,22.0014876 5.16641654,21.3681079 4.76896976,20.5615238 C4.37158824,19.7549397 4.17283223,18.8103353 4.17283223,17.7271287 C4.17283223,16.2494583 4.60133871,14.9936293 5.45841691,13.9600298 C6.31542987,12.9258481 7.47657998,12.4089513 8.94199775,12.4089513 C9.47627688,12.4089513 10.6872139,12.5381108 12.5750045,12.7966885 C13.4567477,12.932057 14.4318006,12.9997736 15.4997716,12.9997736 C16.5680689,12.9997736 17.5429913,12.9322511 18.424604,12.7966885 C20.3375817,12.5380461 21.5481272,12.4089513 22.057676,12.4089513 C23.5230285,12.4089513 24.6841786,12.9261068 25.5411916,13.9600298 C26.3982698,14.9940821 26.8265153,16.2494583 26.8265153,17.7271287 C26.8265153,18.8105294 26.6277592,19.7556511 26.2307692,20.5615238 Z" id="Shape"></path>
                        <path d="M10.9160236,14.6200713 C10.518853,14.2066692 10.0470503,14 9.50006841,14 C8.95294971,14 8.48107864,14.2069245 8.08397636,14.6200713 C7.6870793,15.0330266 7.40695288,15.4949516 7.24428118,16.0048249 C7.08126744,16.5157198 7,17.0138454 7,17.5002235 C7,17.9860907 7.08147266,18.4842802 7.24428118,18.9951112 C7.40674766,19.5053038 7.68673726,19.9669734 8.08397636,20.3798648 C8.48128386,20.793267 8.95294971,21 9.50006841,21 C10.0470503,21 10.5190582,20.7928839 10.9160236,20.3798648 C11.3130575,19.9669096 11.5930471,19.5053038 11.7557188,18.9951112 C11.9185273,18.4842802 12,17.9860907 12,17.5002235 C12,17.0142924 11.9187326,16.5157198 11.7557188,16.0048249 C11.5929787,15.4951432 11.3132627,15.0334096 10.9160236,14.6200713 Z" id="Shape"></path>
                        <path d="M22.9159552,14.6200713 C22.5189214,14.2066692 22.0469819,14 21.5001368,14 C20.953497,14 20.4812839,14.2069245 20.0840448,14.6200713 C19.6870109,15.0330266 19.4070897,15.4949516 19.2446232,16.0048249 C19.0814727,16.5157198 19,17.0138454 19,17.5002235 C19,17.9860907 19.0814727,18.4842802 19.2446232,18.9951112 C19.4070897,19.5053038 19.6870793,19.9669734 20.0840448,20.3798648 C20.4813523,20.793267 20.953497,21 21.5001368,21 C22.0469819,21 22.5189898,20.7928839 22.9159552,20.3798648 C23.3127839,19.9669096 23.5929103,19.5053038 23.7558556,18.9951112 C23.9185957,18.4842802 24,17.9860907 24,17.5002235 C24,17.0142924 23.9185957,16.5157198 23.7558556,16.0048249 C23.5929787,15.4951432 23.3127839,15.0334096 22.9159552,14.6200713 Z" id="Shape"></path>
                    </g>
                </g>
            </g>
        </g>
    </g>
</svg>