<svg viewBox="0 0 41 74" xmlns="http://www.w3.org/2000/svg">
  <defs>
    <linearGradient x1="0%" y1="0%" x2="50%" y2="100%" id="a">
      <stop stop-color="#525C7A" offset="0%"/>
      <stop stop-color="#FFF" offset="100%"/>
    </linearGradient>
  </defs>
  <path d="M26.675 50.238l-3.74-7.578c2.895-.84 5.018-3.514 5.018-6.677 0-2.18-.927-4.358-2.433-5.273l15.497-5.622L33.607 0H9.326L.91 24.776l14.95 6.516c-.976 1.198-1.813 3.03-1.813 4.69 0 3.163 2.123 5.838 5.018 6.678l-3.74 7.578-12.688 1.844 9.18 8.95L9.652 73.67 21 67.7l11.35 5.967L30.18 61.03l9.18-8.95-12.687-1.844zm4.966-47.92l6.197 21.37-16.36 6.008-7.69-27.377H31.64zM4.168 23.13l7.07-20.455 7.07 26.56-14.14-6.105zm12.2 12.854c0-2.556 2.078-4.635 4.634-4.635 2.557 0 4.636 2.078 4.636 4.634 0 2.556-2.08 4.635-4.635 4.635-2.555 0-4.634-2.08-4.634-4.636zm12.714 33.4L21 65.135l-8.084 4.25 1.544-9.003-6.54-6.376 9.038-1.313 4.042-8.19 4.042 8.19 9.038 1.314-6.54 6.377 1.543 9.005z" fill-rule="nonzero" fill="url(#a)"/>
</svg>
