<svg viewBox="0 0 40 62" xmlns="http://www.w3.org/2000/svg">
  <defs>
    <linearGradient x1="50%" y1="0%" x2="50%" y2="258.424%" id="a">
      <stop stop-color="#FFF" offset="0%"/>
      <stop stop-color="#182941" offset="100%"/>
    </linearGradient>
  </defs>
  <g transform="translate(-380 -2825)" fill-rule="nonzero" fill="url(#a)">
    <path d="M409.162 2845.345c1.965.83 3.782 1.923 5.43 3.254v-9.41c0-7.824-6.367-14.19-14.19-14.19h-.22c-7.816 0-14.182 6.366-14.182 14.19v9.41c1.648-1.332 3.465-2.424 5.43-3.255.528-.225 1.07-.43 1.612-.613v-5.542c0-3.944 3.204-7.148 7.148-7.148h.218c3.944 0 7.148 3.204 7.148 7.148v5.55c.535.175 1.078.38 1.606.605z"/>
    <path d="M380 2866.965c0 11.02 8.937 19.957 19.958 19.957 11.02 0 19.958-8.93 19.958-19.957 0-5.416-2.162-10.33-5.662-13.93-1.972-2.02-4.367-3.627-7.043-4.676-2.245-.88-4.696-1.36-7.252-1.36-2.557 0-5.007.48-7.254 1.36-2.676 1.04-5.07 2.647-7.042 4.675-3.507 3.6-5.662 8.514-5.662 13.93zm14.817-4.028c.07-2.726 2.29-4.944 5.014-5.007 2.895-.07 5.27 2.26 5.27 5.14 0 .303-.03.6-.08.88-.253 1.458-1.12 2.712-2.33 3.473-.5.316-.754.908-.627 1.478l1.53 7.248c.09.437-.24.852-.692.852h-5.886c-.45 0-.782-.408-.69-.852l1.528-7.247c.12-.576-.127-1.168-.627-1.485-1.21-.76-2.077-2.007-2.33-3.47-.057-.325-.085-.663-.078-1.008z"/>
  </g>
</svg>
