<?xml version="1.0" encoding="utf-8"?>
<!-- Generator: Adobe Illustrator 19.0.0, SVG Export Plug-In . SVG Version: 6.00 Build 0)  -->
<svg version="1.1" id="Layer_1" xmlns="http://www.w3.org/2000/svg" xmlns:xlink="http://www.w3.org/1999/xlink" x="0px" y="0px"
	 viewBox="-355 255 215 40.9" style="enable-background:new -355 255 215 40.9;" xml:space="preserve">
<style type="text/css">
	.st0{fill:url(#SCIENCEROOT_1_);}
	.st1{fill:none;stroke:#0E5494;stroke-width:4;stroke-linejoin:round;}
	.st2{filter:url(#filter-3);}
	.st3{fill:#1991FB;}
	.st4{filter:url(#filter-5);}
	.st5{filter:url(#filter-7);}
	.st6{filter:url(#filter-9);}
	.st7{filter:url(#filter-11);}
	.st8{filter:url(#filter-13);}
	.st9{filter:url(#filter-15);}
</style>
<filter  height="702.0%" width="702.0%" id="filter-9" filterUnits="objectBoundingBox" y="-227.6%" x="-301.0%">
	<feOffset  result="shadowOffsetOuter1" in="SourceAlpha" dy="5" dx="0"></feOffset>
	<feGaussianBlur  stdDeviation="6" result="shadowBlurOuter1" in="shadowOffsetOuter1"></feGaussianBlur>
	<feColorMatrix  type="matrix" values="0 0 0 0 0   0 0 0 0 0   0 0 0 0 0  0 0 0 0.1 0" in="shadowBlurOuter1"></feColorMatrix>
</filter>
<filter  height="702.0%" width="702.0%" id="filter-7" filterUnits="objectBoundingBox" y="-227.6%" x="-301.0%">
	<feOffset  result="shadowOffsetOuter1" in="SourceAlpha" dy="5" dx="0"></feOffset>
	<feGaussianBlur  stdDeviation="6" result="shadowBlurOuter1" in="shadowOffsetOuter1"></feGaussianBlur>
	<feColorMatrix  type="matrix" values="0 0 0 0 0   0 0 0 0 0   0 0 0 0 0  0 0 0 0.1 0" in="shadowBlurOuter1"></feColorMatrix>
</filter>
<filter  height="702.0%" width="702.0%" id="filter-5" filterUnits="objectBoundingBox" y="-227.6%" x="-301.0%">
	<feOffset  result="shadowOffsetOuter1" in="SourceAlpha" dy="5" dx="0"></feOffset>
	<feGaussianBlur  stdDeviation="6" result="shadowBlurOuter1" in="shadowOffsetOuter1"></feGaussianBlur>
	<feColorMatrix  type="matrix" values="0 0 0 0 0   0 0 0 0 0   0 0 0 0 0  0 0 0 0.1 0" in="shadowBlurOuter1"></feColorMatrix>
</filter>
<filter  height="702.0%" width="702.0%" id="filter-3" filterUnits="objectBoundingBox" y="-227.6%" x="-301.0%">
	<feOffset  result="shadowOffsetOuter1" in="SourceAlpha" dy="5" dx="0"></feOffset>
	<feGaussianBlur  stdDeviation="6" result="shadowBlurOuter1" in="shadowOffsetOuter1"></feGaussianBlur>
	<feColorMatrix  type="matrix" values="0 0 0 0 0   0 0 0 0 0   0 0 0 0 0  0 0 0 0.1 0" in="shadowBlurOuter1"></feColorMatrix>
</filter>
<filter  height="702.0%" width="702.0%" id="filter-15" filterUnits="objectBoundingBox" y="-227.6%" x="-301.0%">
	<feOffset  result="shadowOffsetOuter1" in="SourceAlpha" dy="5" dx="0"></feOffset>
	<feGaussianBlur  stdDeviation="6" result="shadowBlurOuter1" in="shadowOffsetOuter1"></feGaussianBlur>
	<feColorMatrix  type="matrix" values="0 0 0 0 0   0 0 0 0 0   0 0 0 0 0  0 0 0 0.1 0" in="shadowBlurOuter1"></feColorMatrix>
</filter>
<filter  height="702.0%" width="702.0%" id="filter-13" filterUnits="objectBoundingBox" y="-227.6%" x="-301.0%">
	<feOffset  result="shadowOffsetOuter1" in="SourceAlpha" dy="5" dx="0"></feOffset>
	<feGaussianBlur  stdDeviation="6" result="shadowBlurOuter1" in="shadowOffsetOuter1"></feGaussianBlur>
	<feColorMatrix  type="matrix" values="0 0 0 0 0   0 0 0 0 0   0 0 0 0 0  0 0 0 0.1 0" in="shadowBlurOuter1"></feColorMatrix>
</filter>
<filter  height="702.0%" width="702.0%" id="filter-11" filterUnits="objectBoundingBox" y="-227.6%" x="-301.0%">
	<feOffset  result="shadowOffsetOuter1" in="SourceAlpha" dy="5" dx="0"></feOffset>
	<feGaussianBlur  stdDeviation="6" result="shadowBlurOuter1" in="shadowOffsetOuter1"></feGaussianBlur>
	<feColorMatrix  type="matrix" values="0 0 0 0 0   0 0 0 0 0   0 0 0 0 0  0 0 0 0.1 0" in="shadowBlurOuter1"></feColorMatrix>
</filter>
<title>logo</title>
<desc>Created with Sketch.</desc>
<g id="Symbols">
	<g id="top-navigation" transform="translate(11.000000, 5.000000)">
		<g id="logo" transform="translate(0.000000, 1.000000)">
			
				<linearGradient id="SCIENCEROOT_1_" gradientUnits="userSpaceOnUse" x1="-740.3108" y1="537.3299" x2="-740.3108" y2="536.69" gradientTransform="matrix(167.1832 0 0 -14.1992 123532.9531 7893.6699)">
				<stop  offset="0" style="stop-color:#EEEEEE"/>
				<stop  offset="1" style="stop-color:#A5B0BA"/>
			</linearGradient>
			<path id="SCIENCEROOT" class="st0" d="M-306.7,262.1l-0.7,2.9c-2-0.6-3.6-0.9-4.8-0.9c-1.3,0-1.9,0.4-1.9,1.2c0,0.4,0.3,0.8,1,1
				c0.3,0.1,0.9,0.3,2,0.5c1.5,0.3,2.7,0.8,3.5,1.4c0.8,0.6,1.2,1.5,1.2,2.7c0,1.4-0.5,2.5-1.5,3.2s-2.4,1.1-4.2,1.1
				c-1.9,0-4-0.4-6.1-1.2l0.8-3c2,0.8,3.7,1.1,5.2,1.2c1.5,0,2.2-0.4,2.2-1.2c0-0.4-0.2-0.6-0.5-0.8c-0.1-0.1-0.4-0.3-0.7-0.3
				c-0.1,0-0.4-0.1-1-0.3c-0.1,0-0.3-0.1-0.5-0.1s-0.5-0.1-0.5-0.1c-1.6-0.3-2.7-0.8-3.4-1.4c-0.7-0.6-1-1.5-1-2.6
				c0-1.3,0.5-2.4,1.5-3.1s2.3-1.2,4.1-1.2C-310.3,261.2-308.4,261.5-306.7,262.1z M-290.2,261.8l-0.6,3.1c-1.9-0.4-3.2-0.5-4-0.5
				c-1.4,0-2.5,0.4-3.2,1.1s-1.2,1.7-1.2,2.8c0,1.2,0.4,2.2,1.2,2.9c0.8,0.7,1.8,1.1,3.1,1.1c1,0,2.4-0.2,4.2-0.5l0.6,2.9
				c-1.8,0.5-3.5,0.7-5,0.7c-2.3,0-4.1-0.7-5.5-2c-1.4-1.3-2.1-3-2.1-5.2c0-2.1,0.7-3.8,2.1-5.1c1.4-1.3,3.2-2,5.5-2
				C-293.6,261.1-291.9,261.3-290.2,261.8z M-282.5,261.4V275h-3.4v-13.6H-282.5z M-274.3,266.8h6v2.9h-6v2.4h6.9v2.9h-10.3v-13.6
				h10.3v2.9h-6.9V266.8z M-250.1,261.4V275h-3.1l-6.3-7.9v7.9h-3.4v-13.6h3.1l6.3,8v-8H-250.1z M-233.2,261.8l-0.6,3.1
				c-1.9-0.4-3.2-0.5-4-0.5c-1.4,0-2.5,0.4-3.2,1.1s-1.2,1.7-1.2,2.8c0,1.2,0.4,2.2,1.2,2.9c0.8,0.7,1.8,1.1,3.1,1.1
				c1,0,2.4-0.2,4.2-0.5l0.6,2.9c-1.8,0.5-3.5,0.7-5,0.7c-2.3,0-4.1-0.7-5.5-2c-1.4-1.3-2.1-3-2.1-5.2c0-2.1,0.7-3.8,2.1-5.1
				c1.4-1.3,3.2-2,5.5-2C-236.5,261.1-234.9,261.3-233.2,261.8z M-225.5,266.8h6v2.9h-6v2.4h6.9v2.9h-10.3v-13.6h10.3v2.9h-6.9
				V266.8z M-208.5,271.1h-2.2v3.9h-3.4v-13.6c1.9-0.1,3.7-0.1,5.5-0.1c1.8,0,3.2,0.4,4.2,1.3s1.5,2,1.5,3.6c0,0.9-0.2,1.7-0.6,2.4
				s-1,1.3-1.7,1.7l3.3,4.8h-4L-208.5,271.1z M-210.7,268.3h2.2c0.7,0,1.2-0.2,1.7-0.6c0.4-0.4,0.6-0.9,0.6-1.5c0-1.3-0.8-2-2.4-2
				c-0.4,0-0.7,0-1,0h-1V268.3z M-197,263.1c1.4-1.3,3.1-2,5.3-2s3.9,0.7,5.3,2c1.4,1.3,2,3,2,5.1c0,2.1-0.7,3.8-2,5.1
				c-1.3,1.3-3.1,2-5.3,2c-2.2,0-3.9-0.7-5.3-2c-1.3-1.3-2-3-2-5.1C-199,266.1-198.4,264.4-197,263.1z M-194.5,271.1
				c0.7,0.7,1.6,1.1,2.8,1.1c1.1,0,2-0.4,2.7-1.1c0.7-0.7,1.1-1.7,1.1-2.9c0-1.2-0.4-2.1-1.1-2.9c-0.7-0.7-1.6-1.1-2.7-1.1
				c-1.1,0-2,0.4-2.8,1.1c-0.7,0.7-1.1,1.7-1.1,2.9C-195.6,269.4-195.2,270.4-194.5,271.1z M-178.6,263.1c1.4-1.3,3.1-2,5.3-2
				s3.9,0.7,5.3,2c1.4,1.3,2,3,2,5.1c0,2.1-0.7,3.8-2,5.1c-1.3,1.3-3.1,2-5.3,2c-2.2,0-3.9-0.7-5.3-2c-1.3-1.3-2-3-2-5.1
				C-180.6,266.1-180,264.4-178.6,263.1z M-176.1,271.1c0.7,0.7,1.6,1.1,2.8,1.1c1.1,0,2-0.4,2.7-1.1c0.7-0.7,1.1-1.7,1.1-2.9
				c0-1.2-0.4-2.1-1.1-2.9c-0.7-0.7-1.6-1.1-2.7-1.1c-1.1,0-2,0.4-2.8,1.1c-0.7,0.7-1.1,1.7-1.1,2.9
				C-177.2,269.4-176.8,270.4-176.1,271.1z M-155.5,264.4V275h-3.4v-10.6h-4.6v-3h12.5v3H-155.5z"/>
			<g id="symbol">
				<polyline id="Path-4" class="st1" points="-362.6,277.8 -348,286.8 -348,268.9 -362.6,260.8 -348,252.4 				"/>
				<polyline id="Path-6" class="st1" points="-347.8,269.2 -333.2,261.1 -333.2,277.6 				"/>
				<g id="Oval-2-Copy-13">
					<g class="st2">
						<circle id="path-2_2_" cx="-348" cy="286.5" r="3.4"/>
					</g>
					<g>
						<circle id="path-2_1_" class="st3" cx="-348" cy="286.5" r="3.4"/>
					</g>
				</g>
				<g id="Oval-2-Copy-12">
					<g class="st4">
						<circle id="path-4_2_" cx="-362.6" cy="277.7" r="3.4"/>
					</g>
					<g>
						<circle id="path-4_1_" class="st3" cx="-362.6" cy="277.7" r="3.4"/>
					</g>
				</g>
				<g id="Oval-2-Copy-11">
					<g class="st5">
						<circle id="path-6_2_" cx="-362.6" cy="260.7" r="3.4"/>
					</g>
					<g>
						<circle id="path-6_1_" class="st3" cx="-362.6" cy="260.7" r="3.4"/>
					</g>
				</g>
				<g id="Oval-2-Copy-10">
					<g class="st6">
						<circle id="path-8_2_" cx="-348" cy="252.4" r="3.4"/>
					</g>
					<g>
						<circle id="path-8_1_" class="st3" cx="-348" cy="252.4" r="3.4"/>
					</g>
				</g>
				<g id="Oval-2-Copy-9">
					<g class="st7">
						<circle id="path-10_2_" cx="-348" cy="268.9" r="3.4"/>
					</g>
					<g>
						<circle id="path-10_1_" class="st3" cx="-348" cy="268.9" r="3.4"/>
					</g>
				</g>
				<g id="Oval-2-Copy-8">
					<g class="st8">
						<circle id="path-12_2_" cx="-333.4" cy="261.2" r="3.4"/>
					</g>
					<g>
						<circle id="path-12_1_" class="st3" cx="-333.4" cy="261.2" r="3.4"/>
					</g>
				</g>
				<g id="Oval-2-Copy-7">
					<g class="st9">
						<circle id="path-14_2_" cx="-333.4" cy="277.7" r="3.4"/>
					</g>
					<g>
						<circle id="path-14_1_" class="st3" cx="-333.4" cy="277.7" r="3.4"/>
					</g>
				</g>
			</g>
		</g>
	</g>
</g>
</svg>
