<?xml version="1.0" encoding="UTF-8" standalone="no"?>
<svg
   xmlns:dc="http://purl.org/dc/elements/1.1/"
   xmlns:cc="http://creativecommons.org/ns#"
   xmlns:rdf="http://www.w3.org/1999/02/22-rdf-syntax-ns#"
   xmlns:svg="http://www.w3.org/2000/svg"
   xmlns="http://www.w3.org/2000/svg"
   xmlns:sodipodi="http://sodipodi.sourceforge.net/DTD/sodipodi-0.dtd"
   xmlns:inkscape="http://www.inkscape.org/namespaces/inkscape"
   width="24"
   height="24"
   viewBox="0 0 24 24"
   fill="#ffffff"
   version="1.1"
   id="svg827"
   sodipodi:docname="telegram.svg"
   inkscape:version="0.92.2 (5c3e80d, 2017-08-06)">
  <metadata
     id="metadata833">
    <rdf:RDF>
      <cc:Work
         rdf:about="">
        <dc:format>image/svg+xml</dc:format>
        <dc:type
           rdf:resource="http://purl.org/dc/dcmitype/StillImage" />
      </cc:Work>
    </rdf:RDF>
  </metadata>
  <defs
     id="defs831" />
  <sodipodi:namedview
     pagecolor="#ffffff"
     bordercolor="#666666"
     borderopacity="1"
     objecttolerance="10"
     gridtolerance="10"
     guidetolerance="10"
     inkscape:pageopacity="0"
     inkscape:pageshadow="2"
     inkscape:window-width="1366"
     inkscape:window-height="705"
     id="namedview829"
     showgrid="false"
     inkscape:zoom="22.416667"
     inkscape:cx="12"
     inkscape:cy="12"
     inkscape:window-x="-8"
     inkscape:window-y="-8"
     inkscape:window-maximized="1"
     inkscape:current-layer="svg827" />
  <path
     id="path835"
     d="m 15.640539,2.9440583 c -0.579466,0.060264 -1.101492,0.4036504 -1.426609,0.9332955 l -3.341269,5.483111 C 10.309227,8.4520572 9.8734351,7.7486635 9.5586801,7.2994373 9.1502195,6.7145722 8.8847201,6.4933811 8.657664,6.4050291 L 2.5382628,3.2940441 C 1.9447935,2.9953895 1.3194883,3.0006782 0.8113152,3.3329315 0.30794761,3.6589627 0.02292612,4.21894 0.02292612,4.888424 v 13.843882 c 0,0.84121 0.53760636,1.690199 1.27643948,2.061027 l 5.5938085,2.838775 c 0.839747,0.327275 1.5167105,0.206257 1.877117,-0.03889 0.5309987,-0.362119 0.8259313,-0.984316 0.8259313,-1.711042 v -4.122055 l 5.1433006,2.566563 6.307113,3.188759 c 0.524992,0.236435 1.456041,0.304566 2.102371,-0.03889 0.555026,-0.294921 0.825931,-0.941384 0.825931,-1.633267 0,0 0.0048,-11.69637 0,-13.8827694 C 23.972536,7.4988514 23.750585,6.913053 22.961296,6.4439164 22.099923,5.9324705 20.360662,5.0125522 16.691725,3.138495 16.363304,2.9733016 15.988219,2.9079004 15.640539,2.9440583 Z m 0.375423,2.6443372 c 1.599004,0.8188113 3.717293,1.9033006 4.993131,2.5665626 L 15.565454,17.021265 12.299271,11.654816 Z M 2.4256358,5.9772686 7.1559705,8.3882821 7.1935128,21.026657 2.4256358,18.615645 Z M 9.5586801,11.88814 c 0.078088,0.126927 2.7405909,4.433152 2.7405909,4.433152 L 9.5586801,14.960236 Z m 12.0135489,0 v 9.09963 l -4.279827,-2.138802 z"
     inkscape:connector-curvature="0"
     style="stroke-width:1.2226851" />
</svg>
