<?xml version="1.0" encoding="UTF-8"?>
<svg width="33px" height="28px" viewBox="0 0 33 28" version="1.1" xmlns="http://www.w3.org/2000/svg" xmlns:xlink="http://www.w3.org/1999/xlink">
    <!-- Generator: Sketch 47 (45396) - http://www.bohemiancoding.com/sketch -->
    <title>iconmonstr-reddit-1</title>
    <desc>Created with Sketch.</desc>
    <defs></defs>
    <g id="App" stroke="none" stroke-width="1" fill="none" fill-rule="evenodd">
        <g id="scienceroot-fullpage" transform="translate(-807.000000, -6027.000000)" fill-rule="nonzero" fill="#FFFFFF">
            <g id="social" transform="translate(100.000000, 6006.000000)">
                <g id="Group-13" transform="translate(621.000000, 0.000000)">
                    <g id="iconmonstr-reddit-1" transform="translate(86.000000, 21.000000)">
                        <path d="M33,13.6906 C33,11.648 31.361,9.9876 29.346625,9.9876 C28.3635,9.9876 27.4725,10.388 26.816625,11.032 C24.327875,9.3646 20.9605,8.3034 17.2315,8.1676 L19.270625,1.631 L24.792625,2.9484 L24.784375,3.0296 C24.784375,4.6998 26.125,6.0578 27.773625,6.0578 C29.420875,6.0578 30.760125,4.6998 30.760125,3.0296 C30.760125,1.3594 29.4195,1.33226763e-15 27.773625,1.33226763e-15 C26.508625,1.33226763e-15 25.430625,0.8036 24.99475,1.9306 L19.042375,0.5096 C18.7825,0.4452 18.5185,0.5978 18.437375,0.8582 L16.163125,8.148 C12.260875,8.1956 8.72575,9.2652 6.125625,10.983 C5.473875,10.3698 4.609,9.9862 3.652,9.9862 C1.637625,9.9862 -2.66453526e-15,11.648 -2.66453526e-15,13.6906 C-2.66453526e-15,15.0486 0.732875,16.226 1.810875,16.87 C1.739375,17.2648 1.692625,17.6638 1.692625,18.0698 C1.692625,23.5452 8.303625,28 16.43125,28 C24.558875,28 31.17125,23.5452 31.17125,18.0698 C31.17125,17.6862 31.131375,17.3082 31.068125,16.9358 C32.212125,16.31 33,15.099 33,13.6906 Z M9.317,16.233 C9.317,15.0178 10.29325,14.028 11.49225,14.028 C12.69125,14.028 13.666125,15.0178 13.666125,16.233 C13.666125,17.4482 12.69125,18.4366 11.49225,18.4366 C10.29325,18.4366 9.317,17.4482 9.317,16.233 L9.317,16.233 Z M21.775875,22.7696 C20.68,23.8798 18.959875,24.4202 16.517875,24.4202 L16.5,24.416 L16.482125,24.4202 C14.03875,24.4202 12.318625,23.8798 11.224125,22.7696 C11.02475,22.568 11.02475,22.239 11.224125,22.0374 C11.4235,21.8344 11.748,21.8344 11.947375,22.0374 C12.841125,22.9432 14.32475,23.3828 16.482125,23.3828 L16.5,23.387 L16.517875,23.3828 C18.67525,23.3828 20.158875,22.9418 21.052625,22.036 C21.252,21.833 21.5765,21.8344 21.775875,22.036 C21.97525,22.239 21.97525,22.5666 21.775875,22.7696 Z M21.516,18.4366 C20.317,18.4366 19.342125,17.4482 19.342125,16.233 C19.342125,15.0178 20.317,14.028 21.516,14.028 C22.715,14.028 23.689875,15.0178 23.689875,16.233 C23.689875,17.4482 22.715,18.4366 21.516,18.4366 Z" id="Shape"></path>
                    </g>
                </g>
            </g>
        </g>
    </g>
</svg>