<?xml version="1.0" encoding="utf-8"?>
<!-- Generator: Adobe Illustrator 19.0.0, SVG Export Plug-In . SVG Version: 6.00 Build 0)  -->
<svg version="1.1" xmlns="http://www.w3.org/2000/svg" xmlns:xlink="http://www.w3.org/1999/xlink" x="0px" y="0px"
	 viewBox="-187 139 24 24" style="enable-background:new -187 139 24 24;" xml:space="preserve">
<style type="text/css">
	.st0{fill:#00CCBB;}
	.st1{fill:#FFFFFF;}
</style>
<g id="Layer_1">
	<path class="st0" d="M-175,139c-6.6,0-12,5.4-12,12s5.4,12,12,12s12-5.4,12-12S-168.4,139-175,139z"/>
</g>
<g id="Layer_2">
	<path class="st1" d="M-174.7,156.6c-0.5-0.6-1.3-1.8-2.2-3.4c-0.5,0-0.8,0-1.1,0v2.5c0,0.9,0.2,1.1,0.6,1.2l0.8,0.1v0.4
		c-0.4,0-1.2,0-1.9,0c-0.7,0-1.4,0-1.8,0V157l0.6-0.1c0.4-0.1,0.6-0.3,0.6-1.2v-5.8c0-0.9-0.2-1.1-0.6-1.2l-0.6-0.1v-0.4
		c0.4,0,1,0,1.5,0c0.6,0,1.3,0,2.2,0c1.7,0,3,0.8,3,2.4c0,1.1-0.9,2.2-2.1,2.5c0.7,1.3,1.6,2.4,2.2,3.1c0.4,0.4,0.9,0.8,1.4,0.8v0.4
		c-0.2,0.1-0.4,0.1-0.7,0.1C-173.6,157.5-174.3,157.2-174.7,156.6z M-174.9,150.7c0-1.2-0.7-1.8-2-1.8c-0.4,0-0.9,0-1.2,0v3.7
		c0.3,0,0.6,0,1.1,0C-175.7,152.6-174.9,151.8-174.9,150.7z"/>
	<path class="st1" d="M-173.4,146.7c0-1.2,0.8-2.2,2.1-2.2c0.5,0,0.9,0.1,1.2,0.2c0,0.3,0,0.6,0,1h-0.3c0-0.5-0.4-0.9-1-0.9
		c-0.9,0-1.5,0.8-1.5,1.9c0,1.1,0.6,1.9,1.5,1.9c0.3,0,0.6,0,0.8-0.2v-0.8c0-0.4-0.1-0.5-0.3-0.5l-0.3,0v-0.2c0.2,0,0.4,0,0.8,0
		c0.3,0,0.5,0,0.7,0v0.2l-0.2,0c-0.2,0-0.2,0.1-0.2,0.5v1c-0.2,0.1-0.8,0.2-1.4,0.2C-172.7,148.8-173.4,148-173.4,146.7z"/>
</g>
</svg>
