<?xml version="1.0" encoding="UTF-8"?>
<svg width="31px" height="32px" viewBox="0 0 31 32" version="1.1" xmlns="http://www.w3.org/2000/svg" xmlns:xlink="http://www.w3.org/1999/xlink">
    <!-- Generator: Sketch 47 (45396) - http://www.bohemiancoding.com/sketch -->
    <title>slack-symbol</title>
    <desc>Created with Sketch.</desc>
    <defs></defs>
    <g id="App" stroke="none" stroke-width="1" fill="none" fill-rule="evenodd">
        <g id="scienceroot-fullpage" transform="translate(-1014.000000, -6025.000000)" fill-rule="nonzero" fill="#FFFFFF">
            <g id="social" transform="translate(100.000000, 6006.000000)">
                <g id="Group-10" transform="translate(828.000000, 0.000000)">
                    <g id="slack-symbol" transform="translate(86.000000, 19.000000)">
                        <path d="M30.2269375,16.369 C29.6263125,14.981 28.0482188,14.358 26.7035937,14.978 L25.42,15.572 L22.130125,7.981 L23.4137188,7.389 C24.7583438,6.767 25.3609063,5.139 24.7593125,3.752 C24.1586875,2.363 22.5815625,1.74 21.2359688,2.362 L19.9533437,2.955 L19.378875,1.629 C18.7772813,0.241 17.2001562,-0.38 15.8555312,0.241 C14.5109062,0.861 13.9093125,2.488 14.5099375,3.878 L15.0844062,5.203 L7.730625,8.598 L7.157125,7.273 C6.55553125,5.883 4.97840625,5.264 3.63378125,5.883 C2.28915625,6.504 1.6875625,8.132 2.2881875,9.52 L2.8616875,10.844 L1.5790625,11.438 C0.2344375,12.059 -0.368125,13.685 0.23346875,15.074 C0.83409375,16.462 2.4121875,17.084 3.7568125,16.464 L5.04040625,15.87 L8.32834375,23.462 L7.04475,24.054 C5.700125,24.675 5.09853125,26.304 5.69915625,27.691 C6.30075,29.08 7.877875,29.702 9.2225,29.082 L10.505125,28.489 L11.0795938,29.814 C11.6811875,31.203 13.2583125,31.824 14.6029375,31.203 C15.9465938,30.583 16.5491563,28.955 15.9475625,27.567 L15.3750313,26.241 L22.7288125,22.847 L23.3023125,24.168 C23.9039063,25.559 25.4800625,26.181 26.8256563,25.56 C28.1702813,24.941 28.7728437,23.312 28.17125,21.923 L27.59775,20.599 L28.8794063,20.005 C30.2259687,19.384 30.8285313,17.757 30.2269375,16.369 Z M13.1972812,21.215 L9.908375,13.622 L17.2621562,10.228 L20.5510625,17.819 L13.1972812,21.215 Z" id="Shape"></path>
                    </g>
                </g>
            </g>
        </g>
    </g>
</svg>