<?xml version="1.0" encoding="UTF-8" standalone="no"?>
<svg
   xmlns:dc="http://purl.org/dc/elements/1.1/"
   xmlns:cc="http://creativecommons.org/ns#"
   xmlns:rdf="http://www.w3.org/1999/02/22-rdf-syntax-ns#"
   xmlns:svg="http://www.w3.org/2000/svg"
   xmlns="http://www.w3.org/2000/svg"
   xmlns:sodipodi="http://sodipodi.sourceforge.net/DTD/sodipodi-0.dtd"
   xmlns:inkscape="http://www.inkscape.org/namespaces/inkscape"
   width="24"
   height="24"
   viewBox="0 0 24 24"
   fill="#ffffff"
   version="1.1"
   id="svg827"
   sodipodi:docname="telegram.svg"
   inkscape:version="0.92.2 (5c3e80d, 2017-08-06)">
  <metadata
     id="metadata833">
    <rdf:RDF>
      <cc:Work
         rdf:about="">
        <dc:format>image/svg+xml</dc:format>
        <dc:type
           rdf:resource="http://purl.org/dc/dcmitype/StillImage" />
      </cc:Work>
    </rdf:RDF>
  </metadata>
  <defs
     id="defs831" />
  <sodipodi:namedview
     pagecolor="#ffffff"
     bordercolor="#666666"
     borderopacity="1"
     objecttolerance="10"
     gridtolerance="10"
     guidetolerance="10"
     inkscape:pageopacity="0"
     inkscape:pageshadow="2"
     inkscape:window-width="1366"
     inkscape:window-height="705"
     id="namedview829"
     showgrid="false"
     inkscape:zoom="22.416667"
     inkscape:cx="14.536505"
     inkscape:cy="12.044362"
     inkscape:window-x="-8"
     inkscape:window-y="-8"
     inkscape:window-maximized="1"
     inkscape:current-layer="svg827" />
  <g
     id="g870"
     transform="matrix(0.12554783,0,0,0.12554783,0.10192728,1.371255)"
     style="fill:#ffffff">
    <g
       id="g814"
       style="fill:#ffffff">
      <path
         id="path812"
         d="m 152.531,179.476 c -1.48,0 -2.95,-0.438 -4.211,-1.293 l -47.641,-32.316 -25.552,18.386 c -2.004,1.441 -4.587,1.804 -6.914,0.972 -2.324,-0.834 -4.089,-2.759 -4.719,-5.146 L 50.664,111.457 4.821,93.928 C 1.935,92.824 0.021,90.063 0,86.973 c -0.021,-3.09 1.855,-5.877 4.727,-7.02 l 174.312,-69.36 c 0.791,-0.336 1.628,-0.53 2.472,-0.582 0.302,-0.018 0.605,-0.018 0.906,-10e-4 1.748,0.104 3.465,0.816 4.805,2.13 0.139,0.136 0.271,0.275 0.396,0.42 1.11,1.268 1.72,2.814 1.835,4.389 0.028,0.396 0.026,0.797 -0.009,1.198 -0.024,0.286 -0.065,0.571 -0.123,0.854 L 159.898,173.38 c -0.473,2.48 -2.161,4.556 -4.493,5.523 -0.925,0.384 -1.902,0.573 -2.874,0.573 z m -47.669,-48.897 42.437,28.785 22.894,-120.124 -82.687,79.566 17.156,11.638 c 0.069,0.043 0.135,0.089 0.2,0.135 z m -35.327,-6.401 5.682,21.53 12.242,-8.809 -16.03,-10.874 c -0.745,-0.504 -1.383,-1.132 -1.894,-1.847 z M 28.136,86.782 59.614,98.817 c 2.255,0.862 3.957,2.758 4.573,5.092 l 3.992,15.129 c 0.183,-1.745 0.974,-3.387 2.259,-4.624 L 149.227,38.6 Z"
         inkscape:connector-curvature="0"
         style="fill:#ffffff" />
    </g>
    <g
       id="g816"
       style="fill:#ffffff" />
    <g
       id="g818"
       style="fill:#ffffff" />
    <g
       id="g820"
       style="fill:#ffffff" />
    <g
       id="g822"
       style="fill:#ffffff" />
    <g
       id="g824"
       style="fill:#ffffff" />
    <g
       id="g826"
       style="fill:#ffffff" />
    <g
       id="g828"
       style="fill:#ffffff" />
    <g
       id="g830"
       style="fill:#ffffff" />
    <g
       id="g832"
       style="fill:#ffffff" />
    <g
       id="g834"
       style="fill:#ffffff" />
    <g
       id="g836"
       style="fill:#ffffff" />
    <g
       id="g838"
       style="fill:#ffffff" />
    <g
       id="g840"
       style="fill:#ffffff" />
    <g
       id="g842"
       style="fill:#ffffff" />
    <g
       id="g844"
       style="fill:#ffffff" />
  </g>
</svg>
