<?xml version="1.0" encoding="UTF-8"?>
<svg width="31px" height="25px" viewBox="0 0 31 25" version="1.1" xmlns="http://www.w3.org/2000/svg" xmlns:xlink="http://www.w3.org/1999/xlink">
    <!-- Generator: Sketch 47 (45396) - http://www.bohemiancoding.com/sketch -->
    <title>iconmonstr-twitter-1</title>
    <desc>Created with Sketch.</desc>
    <defs></defs>
    <g id="App" stroke="none" stroke-width="1" fill="none" fill-rule="evenodd">
        <g id="scienceroot-fullpage" transform="translate(-394.000000, -6028.000000)" fill-rule="nonzero" fill="#FFFFFF">
            <g id="social" transform="translate(100.000000, 6006.000000)">
                <g id="Group-8" transform="translate(207.000000, 0.000000)">
                    <g id="iconmonstr-twitter-1" transform="translate(87.000000, 22.000000)">
                        <path d="M30.582102,3.12470998 C29.4569355,3.60374256 28.2476682,3.92635634 26.978511,4.07177695 C28.2744276,3.32756562 29.2696201,2.14831449 29.7372714,0.742989311 C28.5254557,1.43220966 27.1823917,1.93323864 25.7526784,2.20330547 C24.6096723,1.03383052 22.9773526,0.30306143 21.1730086,0.30306143 C17.1221544,0.30306143 14.1454964,3.92757837 15.060411,7.69018378 C9.84743685,7.43966929 5.22444243,5.04450638 2.12927885,1.40410316 C0.485490869,4.10843761 1.27680276,7.64619099 4.06996808,9.43767508 C3.04291915,9.40590252 2.07448592,9.13583568 1.22965535,8.6849096 C1.16084562,11.4723415 3.24425132,14.0801363 6.26168539,14.6605967 C5.37862719,14.8903368 4.41146822,14.9441057 3.42774393,14.7632465 C4.2254271,17.1535213 6.54202132,18.8924585 9.28931349,18.9413394 C6.65160719,20.9246809 3.3283521,21.8106468 -1.77635684e-15,21.434264 C2.77660001,23.1414286 6.07564427,24.1373764 9.61807108,24.1373764 C21.2673034,24.1373764 27.8488266,14.7021454 27.4512593,6.23964379 C28.6770919,5.39033857 29.7410942,4.33084559 30.582102,3.12470998 Z" id="Shape"></path>
                    </g>
                </g>
            </g>
        </g>
    </g>
</svg>