<?xml version="1.0" encoding="UTF-8"?>
<svg width="30px" height="30px" viewBox="0 0 30 30" version="1.1" xmlns="http://www.w3.org/2000/svg" xmlns:xlink="http://www.w3.org/1999/xlink">
    <!-- Generator: Sketch 47 (45396) - http://www.bohemiancoding.com/sketch -->
    <title>twitter</title>
    <desc>Created with Sketch.</desc>
    <defs></defs>
    <g id="App" stroke="none" stroke-width="1" fill="none" fill-rule="evenodd">
        <g id="scienceroot-fullpage" transform="translate(-570.000000, -4473.000000)">
            <g id="people" transform="translate(-59.000000, 3994.000000)">
                <g id="team-group" transform="translate(0.000000, 254.000000)">
                    <g id="person-copy" transform="translate(532.000000, 0.000000)">
                        <g id="social" transform="translate(58.000000, 225.000000)">
                            <g id="twitter" transform="translate(39.000000, 0.000000)">
                                <circle id="Oval-10" fill="#00ACED" cx="15" cy="15" r="15"></circle>
                                <g id="twitter-logo-silhouette" transform="translate(8.000000, 9.000000)" fill-rule="nonzero" fill="#FFFFFF">
                                    <path d="M14,1.35557516 C13.4847222,1.58389869 12.9318366,1.7387451 12.3509281,1.80787582 C12.9440752,1.45268301 13.3981144,0.889297386 13.6133072,0.220042484 C13.0569216,0.548973856 12.4427745,0.787820261 11.7883889,0.917297386 C11.2643725,0.358281046 10.5190098,0.0100882353 9.69227778,0.0100882353 C8.10620588,0.0100882353 6.82019608,1.29609804 6.82019608,2.88130065 C6.82019608,3.10612418 6.84556536,3.32570915 6.89456536,3.53568627 C4.50802288,3.41581699 2.39180392,2.27241503 0.975447712,0.534973856 C0.727862745,0.958405229 0.58701634,1.45179085 0.58701634,1.97846078 C0.58701634,2.9749085 1.09442484,3.85411765 1.86428758,4.36850327 C1.39361765,4.35276471 0.950947712,4.22328758 0.563408497,4.0080719 L0.563408497,4.04394118 C0.563408497,5.4349281 1.55372549,6.59583007 2.86684314,6.86004575 C2.62625817,6.92478431 2.37256536,6.96065359 2.11011111,6.96065359 C1.92465686,6.96065359 1.74531046,6.94228431 1.56946405,6.90728431 C1.93513399,8.04894771 2.99545098,8.87915686 4.25172222,8.9019183 C3.26927451,9.67178105 2.03050327,10.1293203 0.68501634,10.1293203 C0.45319281,10.1293203 0.224846405,10.1153203 2.2875817e-05,10.089951 C1.2711634,10.906183 2.78025817,11.3820915 4.40219935,11.3820915 C9.68532353,11.3820915 12.5731667,7.00615359 12.5731667,3.21112418 L12.5635359,2.83932353 C13.1277908,2.43686928 13.6159379,1.93122222 14,1.35557516 Z" id="Shape"></path>
                                </g>
                            </g>
                        </g>
                    </g>
                </g>
            </g>
        </g>
    </g>
</svg>